<svg width="24" height="24" viewBox="0 0 24 24">
    <path fill="#000000" fill-rule="evenodd" d="M12 2c5.523 0 10 4.477 10 10s-4.477 10-10 10S2 17.523 2 12 6.477 2 12 2zm0 1.875a8.125 8.125 0 1 0 0 16.25 8.125 8.125 0 0 0 0-16.25zm.06 11.782a1.07 1.07 0 0 1 1.004 1.094c-.013.557-.52 1.057-1.062 1.049-.527-.008-1.042-.538-1.046-1.079-.004-.565.541-1.09 1.105-1.064zm.304-8.855c1.021-.002 1.906.316 2.572 1.143.81 1.006.82 2.187.017 3.199-.343.431-.745.807-1.152 1.173-.4.36-.745.75-.884 1.293a1.004 1.004 0 0 1-.271.45.91.91 0 0 1-1.073.19c-.335-.165-.51-.512-.45-.943.09-.618.443-1.089.87-1.503.28-.273.592-.512.885-.771.19-.169.382-.337.556-.522.704-.748.494-1.707-.454-2.09a1.527 1.527 0 0 0-1.892.604c-.115.181-.197.385-.286.583-.097.216-.199.428-.367.6-.312.318-.72.407-1.061.227-.338-.178-.49-.57-.397-1.022.287-1.378 1.653-2.553 3.038-2.61.116-.006.233-.001.35-.001z"/>
</svg>
