<svg width="20" height="20" viewBox="0 0 20 20">
    <g fill="none" fill-rule="evenodd">
        <path fill="#FFF" fill-opacity="0" d="M0 0H20V20H0z"/>
        <path fill="tintColor" d="M3.864 14.366h12.272v-.457c0-.252-.203-.458-.455-.458-.688 0-1.25-.538-1.25-1.199V8.94c0-1.975-1.367-3.697-3.326-4.187-.3-.076-.508-.332-.508-.626v-.57c0-.33-.268-.597-.597-.597-.329 0-.597.267-.597.597v.57c0 .294-.208.55-.508.626-1.959.49-3.327 2.212-3.327 4.187v3.312c0 .661-.56 1.2-1.25 1.2-.25 0-.454.205-.454.457v.457zm4.868 1.467c.202.663.701 1.207 1.268 1.207.567 0 1.066-.544 1.268-1.207H8.732zm-1.435-.172h-3.83c-.533 0-.967-.414-.967-.923v-.829c0-.93.755-1.692 1.705-1.75V8.94c0-2.389 1.552-4.495 3.835-5.287v-.095c0-1.042.88-1.89 1.96-1.89s1.96.848 1.96 1.89v.095c2.283.792 3.835 2.898 3.835 5.288v3.22c.95.057 1.705.82 1.705 1.75v.828c0 .509-.434.923-.966.923h-3.83c-.18 1.507-1.324 2.672-2.704 2.672-1.38 0-2.524-1.165-2.703-2.672z"/>
    </g>
</svg>
