<svg width="20" height="20" viewBox="0 0 20 20">
    <path  fill-rule="evenodd" d="M11.586 17.771c-.982.78-2.282.745-3.224-.084-.382-.337-.662-.738-.834-1.197l4.99-.001c-.195.5-.494.935-.932 1.282zM10.063 1.667c.975.013 1.757.672 1.886 1.63.037.272.156.385.392.493 2.248 1.032 3.43 2.782 3.478 5.27.018.895.002 1.79.004 2.686 0 .367.003.369.338.466.653.191 1.339.445 1.339 1.329v1.322c0 .524-.351.743-.919.793H7.05c-.03-.002-.06-.003-.093-.002l-.267.002-3.214.001c-.028-.001-.055-.004-.082-.007-.446-.053-.8-.354-.85-.787-.051-.427-.07-.865.022-1.29.153-.696.59-1.135 1.264-1.343.404-.125.405-.125.406-.562.002-.926-.021-1.853.009-2.778.077-2.398 1.267-4.066 3.409-5.076.257-.121.398-.232.443-.549.138-.963.97-1.611 1.967-1.598z"/>
</svg>
