<svg width="35" height="35" viewBox="0 0 35 35" fill="none" xmlns="http://www.w3.org/2000/svg">
    <path d="M17.5 0C7.83506 0 0 7.83499 0 17.5C0 27.165 7.83506 35 17.5 35C27.1649 35 35 27.1649 35 17.5C35 7.83506 27.165 0 17.5 0ZM26.681 8.31899C31.2993 12.9373 31.6205 19.9961 28.1401 24.9466L10.0533 6.86C15.0072 3.37722 22.0652 3.7033 26.681 8.31899ZM8.31899 26.681C3.70069 22.0627 3.37948 15.0039 6.85993 10.0534L24.9467 28.14C19.9928 31.6228 12.9348 31.2968 8.31899 26.681Z" fill="grey"/>
</svg>
