<svg width="11" height="11" viewBox="0 0 11 11" fill="none" xmlns="http://www.w3.org/2000/svg">
<path d="M5.50065 2.79134C5.357 2.79134 5.21922 2.84841 5.11764 2.94999C5.01606 3.05157 4.95899 3.18935 4.95899 3.33301V5.49967C4.95899 5.64333 5.01606 5.78111 5.11764 5.88269C5.21922 5.98427 5.357 6.04134 5.50065 6.04134C5.64431 6.04134 5.78209 5.98427 5.88367 5.88269C5.98525 5.78111 6.04232 5.64333 6.04232 5.49967V3.33301C6.04232 3.18935 5.98525 3.05157 5.88367 2.94999C5.78209 2.84841 5.64431 2.79134 5.50065 2.79134ZM5.99899 7.46051C5.98713 7.42599 5.97074 7.3932 5.95024 7.36301L5.88524 7.28176C5.80907 7.2066 5.71234 7.15568 5.60726 7.13544C5.50218 7.11519 5.39346 7.12653 5.29482 7.16801C5.22918 7.19544 5.16872 7.23391 5.11607 7.28176C5.06587 7.33237 5.02615 7.3924 4.99919 7.45839C4.97224 7.52439 4.95857 7.59505 4.95899 7.66634C4.95984 7.73712 4.97457 7.80705 5.00232 7.87217C5.02665 7.93939 5.06546 8.00044 5.11601 8.05099C5.16656 8.10153 5.2276 8.14035 5.29482 8.16467C5.35966 8.19333 5.42977 8.20813 5.50065 8.20813C5.57154 8.20813 5.64165 8.19333 5.70649 8.16467C5.77371 8.14035 5.83475 8.10153 5.8853 8.05099C5.93585 8.00044 5.97466 7.93939 5.99899 7.87217C6.02674 7.80705 6.04146 7.73712 6.04232 7.66634C6.04498 7.63028 6.04498 7.59407 6.04232 7.55801C6.03299 7.52347 6.01838 7.49058 5.99899 7.46051ZM5.50065 0.0830078C4.42934 0.0830078 3.38208 0.40069 2.49131 0.995881C1.60055 1.59107 0.906281 2.43704 0.496306 3.42681C0.0863313 4.41657 -0.0209367 5.50568 0.188067 6.55641C0.39707 7.60714 0.912957 8.5723 1.67049 9.32984C2.42803 10.0874 3.39318 10.6033 4.44391 10.8123C5.49465 11.0213 6.58376 10.914 7.57352 10.504C8.56329 10.094 9.40926 9.39978 10.0044 8.50901C10.5996 7.61825 10.9173 6.57099 10.9173 5.49967C10.9173 4.78835 10.7772 4.08399 10.505 3.42681C10.2328 2.76963 9.8338 2.1725 9.33082 1.66951C8.82783 1.16653 8.2307 0.76754 7.57352 0.495327C6.91634 0.223114 6.21198 0.0830078 5.50065 0.0830078ZM5.50065 9.83301C4.6436 9.83301 3.8058 9.57886 3.09318 9.10271C2.38057 8.62656 1.82516 7.94978 1.49718 7.15797C1.1692 6.36616 1.08338 5.49487 1.25058 4.65428C1.41779 3.8137 1.8305 3.04157 2.43652 2.43555C3.04255 1.82952 3.81468 1.41681 4.65526 1.24961C5.49585 1.0824 6.36714 1.16822 7.15895 1.4962C7.95076 1.82418 8.62753 2.37959 9.10369 3.0922C9.57984 3.80482 9.83399 4.64262 9.83399 5.49967C9.83399 6.64895 9.37744 7.75115 8.56478 8.5638C7.75213 9.37646 6.64993 9.83301 5.50065 9.83301Z" fill="#F0142D"/>
</svg>
