<svg width="24" height="25" viewBox="0 0 24 25">
    <g fill="none" fill-rule="evenodd">
        <path fill="#FFF" fill-opacity="0" d="M0 0H24V24H0z" transform="translate(0 1)"/>
        <path fill="#000000" d="M14.14 3.12c.158.213.292.452.418.692l6.947 13.206c.256.485.459.985.489 1.556.102 1.915-1.095 3.369-2.843 3.413-.976.025-1.953.006-2.93.006H5.109c-.371.001-.74-.025-1.098-.143-1.632-.538-2.459-2.55-1.761-4.29.08-.202.18-.397.28-.589L9.452 3.812c.101-.192.202-.385.321-.564 1.069-1.608 3.223-1.674 4.368-.129zm-1.984 13.373c-.533-.013-.98.43-.968.96.01.516.426.916.948.915.531-.002.923-.392.927-.924.003-.526-.39-.94-.907-.951zm-.058-7.494c-.506.014-.899.367-.906.893-.018 1.402-.012 2.804-.001 4.206.003.384.215.666.59.811.622.24 1.27-.209 1.266-.801-.004-.701 0-1.402.002-2.103 0-.701.018-1.403-.005-2.103-.019-.562-.416-.917-.946-.903z" transform="translate(0 1)"/>
    </g>
</svg>
