<svg width="95" height="105" viewBox="0 0 95 105" fill="none" xmlns="http://www.w3.org/2000/svg">
<path d="M93.5 52.5C93.5 81.0496 72.8039 104 47.5 104C22.1961 104 1.5 81.0496 1.5 52.5C1.5 23.9504 22.1961 1 47.5 1C72.8039 1 93.5 23.9504 93.5 52.5Z" stroke="#23231E" stroke-width="2"/>
<path d="M82.061 52.5C82.061 75.5942 66.4278 94.0001 47.4997 94.0001C28.5716 94.0001 12.9385 75.5942 12.9385 52.5C12.9385 29.4058 28.5716 11 47.4997 11C66.4278 11 82.061 29.4058 82.061 52.5Z" fill="#FAF0B9" stroke="#23231E" stroke-width="2"/>
<path d="M31.5 67V64H35.7V48.7C35.7 45.9 36.525 43.4083 38.175 41.225C39.825 39.0417 42 37.6667 44.7 37.1V35.65C44.7 34.8833 44.975 34.25 45.525 33.75C46.075 33.25 46.7333 33 47.5 33C48.2667 33 48.925 33.25 49.475 33.75C50.025 34.25 50.3 34.8833 50.3 35.65V37.1C53 37.6667 55.1833 39.0417 56.85 41.225C58.5167 43.4083 59.35 45.9 59.35 48.7V64H63.5V67H31.5ZM47.5 73C46.4333 73 45.5 72.6083 44.7 71.825C43.9 71.0417 43.5 70.1 43.5 69H51.5C51.5 70.1 51.1083 71.0417 50.325 71.825C49.5417 72.6083 48.6 73 47.5 73Z" fill="#23231E"/>
</svg>
