<svg width="97" height="96" viewBox="0 0 97 96" fill="none" xmlns="http://www.w3.org/2000/svg">
<rect x="1.5" y="1" width="94" height="94" rx="5" fill="#FAF0B9" stroke="black" stroke-width="2"/>
<rect x="12.5" y="12" width="72" height="72" rx="5" fill="white" stroke="black" stroke-width="2"/>
<path d="M37.3958 58.8337V55.5837H49.475C48.7167 54.8253 48.0667 53.9316 47.525 52.9024C46.9833 51.8732 46.6222 50.7809 46.4417 49.6253H33.3333V46.3753H46.4417C46.6222 45.3281 46.9743 44.2538 47.4979 43.1524C48.0215 42.051 48.6806 41.1392 49.475 40.417H37.6667V37.167H57.1667C60.1639 37.167 62.7188 38.2232 64.8313 40.3357C66.9438 42.4482 68 45.0031 68 48.0003C68 50.9975 66.9438 53.5524 64.8313 55.6649C62.7188 57.7774 60.1639 58.8337 57.1667 58.8337H37.3958ZM29 58.8337V55.5837H35.7708V58.8337H29Z" fill="#23231E"/>
</svg>
