<svg width="77" height="85" viewBox="0 0 77 85" fill="none" xmlns="http://www.w3.org/2000/svg">
<path d="M75.5474 42.5C75.5474 65.5268 58.8594 84 38.4998 84C18.1401 84 1.45215 65.5268 1.45215 42.5C1.45215 19.4732 18.1401 1 38.4998 1C58.8594 1 75.5474 19.4732 75.5474 42.5Z" fill="#FAF0B9" stroke="#23231E" stroke-width="2"/>
<path d="M66.2873 42.5005C66.2873 61.1238 53.6868 75.9053 38.4996 75.9053C23.3124 75.9053 10.7119 61.1238 10.7119 42.5005C10.7119 23.8772 23.3124 9.0957 38.4996 9.0957C53.6868 9.0957 66.2873 23.8772 66.2873 42.5005Z" fill="white" stroke="#23231E" stroke-width="2"/>
<path fill-rule="evenodd" clip-rule="evenodd" d="M49.8327 37.6702C49.8327 39.7168 49.3601 41.6452 48.5255 43.3369H48.5332L48.4409 43.5052C48.3334 43.7149 48.2203 43.9209 48.1018 44.1229L38.314 61.9559L28.797 43.9494C27.7618 42.1172 27.166 39.9683 27.166 37.6702C27.166 30.9639 32.2401 25.5273 38.4993 25.5273C44.7586 25.5273 49.8327 30.9639 49.8327 37.6702ZM38.4995 42.9051C41.6291 42.9051 44.1661 40.3681 44.1661 37.2384C44.1661 34.1088 41.6291 31.5718 38.4995 31.5718C35.3698 31.5718 32.8328 34.1088 32.8328 37.2384C32.8328 40.3681 35.3698 42.9051 38.4995 42.9051Z" fill="#23231E"/>
</svg>
