<svg width="13px" height="14px" xmlns="http://www.w3.org/2000/svg">
  <g transform="matrix(1 0 0 1 -633 -288 )">
    <path d="M 11.607142857142858 9.40625  C 11.607142857142858 9.042578125  11.917633928571428 8.75  12.303571428571429 8.75  C 12.688058035714286 8.75  13 9.0439453125  13 9.40625  L 13 11.375  C 13 12.824765625  11.7528125 14  10.214285714285714 14  L 2.7857142857142856 14  C 1.2471875 14  0 12.824765625  0 11.375  L 0 9.40625  C 0 9.042578125  0.3116517857142857 8.75  0.6964285714285714 8.75  C 1.0809151785714286 8.75  1.3928571428571428 9.0439453125  1.3928571428571428 9.40625  L 1.3928571428571428 11.375  C 1.3928571428571428 12.096874999999999  2.019642857142857 12.6875  2.7857142857142856 12.6875  L 10.214285714285714 12.6875  C 10.980357142857143 12.6875  11.607142857142858 12.096874999999999  11.607142857142858 11.375  L 11.607142857142858 9.40625  Z M 6.976995535714286 0.2031640625000002  C 6.7089285714285705 -0.059609375000000006  6.291071428571429 -0.059609375000000006  6.024107142857142 0.17880078124999998  L 2.0776785714285713 3.6541914062499994  C 1.795625 3.9265624999999997  1.782857142857143 4.3421875000000005  2.046629464285714 4.6046875  C 2.309589285714286 4.86871875  2.7503125 4.88140625  3.030625 4.63287890625  L 5.803571428571429 2.1754687500000003  L 5.803571428571429 8.967656250000001  C 5.803571428571429 9.332421875  6.116964285714286 9.625  6.5 9.625  C 6.883035714285715 9.625  7.196428571428572 9.3310546875  7.196428571428572 8.993359374999999  L 7.196428571428572 2.1754687500000003  L 9.969375 4.6342187500000005  C 10.249571428571429 4.8828828125  10.690178571428572 4.8700585937500005  10.953370535714287 4.60602734375  C 11.079017857142858 4.4789062500000005  11.142857142857142 4.317578125  11.142857142857142 4.15625  C 11.142857142857142 3.98193359375  11.069412946428573 3.8076171875  10.923424107142857 3.6785546875  L 6.976995535714286 0.2031640625000002  Z " fill-rule="nonzero"  stroke="none" fill-opacity="0.996078431372549" transform="matrix(1 0 0 1 633 288 )" />
  </g>
</svg>

