<svg width="15" height="11" viewBox="0 0 15 11" fill="none" xmlns="http://www.w3.org/2000/svg">
  <path
    d="M1.0968 0C0.80591 0 0.526935 0.115892 0.321245 0.322182C0.115555 0.528472 0 0.808262 0 1.1C0 1.39174 0.115555 1.67153 0.321245 1.87782C0.526935 2.08411 0.80591 2.2 1.0968 2.2C1.38769 2.2 1.66666 2.08411 1.87235 1.87782C2.07804 1.67153 2.1936 1.39174 2.1936 1.1C2.1936 0.808262 2.07804 0.528472 1.87235 0.322182C1.66666 0.115892 1.38769 0 1.0968 0ZM4.7528 0.366667C4.6559 0.365292 4.5597 0.383245 4.46979 0.419482C4.37988 0.455719 4.29804 0.509517 4.22904 0.577749C4.16003 0.645982 4.10524 0.727288 4.06784 0.816944C4.03044 0.906599 4.01118 1.00281 4.01118 1.1C4.01118 1.19719 4.03044 1.2934 4.06784 1.38306C4.10524 1.47271 4.16003 1.55402 4.22904 1.62225C4.29804 1.69048 4.37988 1.74428 4.46979 1.78052C4.5597 1.81675 4.6559 1.83471 4.7528 1.83333H14.2584C14.3553 1.83471 14.4515 1.81675 14.5414 1.78052C14.6313 1.74428 14.7131 1.69048 14.7821 1.62225C14.8511 1.55402 14.9059 1.47271 14.9433 1.38306C14.9807 1.2934 15 1.19719 15 1.1C15 1.00281 14.9807 0.906599 14.9433 0.816944C14.9059 0.727288 14.8511 0.645982 14.7821 0.577749C14.7131 0.509517 14.6313 0.455719 14.5414 0.419482C14.4515 0.383245 14.3553 0.365292 14.2584 0.366667H4.7528ZM1.0968 4.4C0.80591 4.4 0.526935 4.51589 0.321245 4.72218C0.115555 4.92847 0 5.20826 0 5.5C0 5.79174 0.115555 6.07153 0.321245 6.27782C0.526935 6.48411 0.80591 6.6 1.0968 6.6C1.38769 6.6 1.66666 6.48411 1.87235 6.27782C2.07804 6.07153 2.1936 5.79174 2.1936 5.5C2.1936 5.20826 2.07804 4.92847 1.87235 4.72218C1.66666 4.51589 1.38769 4.4 1.0968 4.4ZM4.7528 4.76667C4.6559 4.76529 4.5597 4.78325 4.46979 4.81948C4.37988 4.85572 4.29804 4.90952 4.22904 4.97775C4.16003 5.04598 4.10524 5.12729 4.06784 5.21694C4.03044 5.3066 4.01118 5.40281 4.01118 5.5C4.01118 5.59719 4.03044 5.6934 4.06784 5.78306C4.10524 5.87271 4.16003 5.95402 4.22904 6.02225C4.29804 6.09048 4.37988 6.14428 4.46979 6.18052C4.5597 6.21676 4.6559 6.23471 4.7528 6.23333H14.2584C14.3553 6.23471 14.4515 6.21676 14.5414 6.18052C14.6313 6.14428 14.7131 6.09048 14.7821 6.02225C14.8511 5.95402 14.9059 5.87271 14.9433 5.78306C14.9807 5.6934 15 5.59719 15 5.5C15 5.40281 14.9807 5.3066 14.9433 5.21694C14.9059 5.12729 14.8511 5.04598 14.7821 4.97775C14.7131 4.90952 14.6313 4.85572 14.5414 4.81948C14.4515 4.78325 14.3553 4.76529 14.2584 4.76667H4.7528ZM1.0968 8.8C0.80591 8.8 0.526935 8.91589 0.321245 9.12218C0.115555 9.32847 0 9.60826 0 9.9C0 10.1917 0.115555 10.4715 0.321245 10.6778C0.526935 10.8841 0.80591 11 1.0968 11C1.38769 11 1.66666 10.8841 1.87235 10.6778C2.07804 10.4715 2.1936 10.1917 2.1936 9.9C2.1936 9.60826 2.07804 9.32847 1.87235 9.12218C1.66666 8.91589 1.38769 8.8 1.0968 8.8ZM4.7528 9.16667C4.6559 9.16529 4.5597 9.18325 4.46979 9.21948C4.37988 9.25572 4.29804 9.30952 4.22904 9.37775C4.16003 9.44598 4.10524 9.52729 4.06784 9.61694C4.03044 9.7066 4.01118 9.80282 4.01118 9.9C4.01118 9.99719 4.03044 10.0934 4.06784 10.1831C4.10524 10.2727 4.16003 10.354 4.22904 10.4223C4.29804 10.4905 4.37988 10.5443 4.46979 10.5805C4.5597 10.6168 4.6559 10.6347 4.7528 10.6333H14.2584C14.3553 10.6347 14.4515 10.6168 14.5414 10.5805C14.6313 10.5443 14.7131 10.4905 14.7821 10.4223C14.8511 10.354 14.9059 10.2727 14.9433 10.1831C14.9807 10.0934 15 9.99719 15 9.9C15 9.80282 14.9807 9.7066 14.9433 9.61694C14.9059 9.52729 14.8511 9.44598 14.7821 9.37775C14.7131 9.30952 14.6313 9.25572 14.5414 9.21948C14.4515 9.18325 14.3553 9.16529 14.2584 9.16667H4.7528Z" />
</svg>