<svg width="10" height="17" viewBox="0 0 10 17" fill="none" xmlns="http://www.w3.org/2000/svg">
    <path d="M7.97314 0.675698L7.97314 15.4814C7.97314 15.8136 8.24707 16.0825 8.5957 16.0825C8.94434 16.0825 9.22656 15.8136 9.22656 15.4814L9.22656 0.675698C9.22656 0.343518 8.94434 0.0825195 8.5957 0.0825195C8.24707 0.0825195 7.97314 0.343518 7.97314 0.675698ZM4.354 0.675698L4.354 15.4814C4.354 15.8136 4.62793 16.0825 4.97656 16.0825C5.3335 16.0825 5.61572 15.8136 5.61572 15.4814L5.61572 0.675698C5.61572 0.343518 5.3335 0.0825194 4.97656 0.0825193C4.62793 0.0825193 4.354 0.343518 4.354 0.675698ZM0.726562 0.675698L0.726562 15.4814C0.726562 15.8136 1.00879 16.0825 1.36572 16.0825C1.71435 16.0825 1.98828 15.8136 1.98828 15.4814L1.98828 0.675698C1.98828 0.343518 1.71436 0.0825192 1.36572 0.0825192C1.00879 0.0825192 0.726562 0.343518 0.726562 0.675698Z" fill="#3C3C43" fill-opacity="0.3"/>
</svg>
