<svg width="24" height="24" viewBox="0 0 24 24">
    <path fill="crystalContrast" fill-rule="evenodd" d="M14.183 3.01c.92.007 1.489.59 1.504 1.504.006.316-.003.632.003.948.007.388.011.396.389.402.466.008.933.003 1.4.003.817 0 1.634-.001 2.45.001.15 0 .302 0 .449.025.402.068.63.337.622.717-.008.366-.267.645-.657.69-.148.017-.3.009-.45.01-.25 0-.5-.002-.75 0-.487.004-.491.004-.491.495-.002 3.71-.001 7.42-.001 11.13 0 .166.002.333-.002.499-.015.704-.335 1.202-1.003 1.46-.062.024-.127.039-.158.106H6.578c-.092-.113-.24-.102-.358-.164-.511-.27-.814-.674-.838-1.263-.007-.166-.004-.332-.004-.499V8.044c0-.116.003-.233 0-.35-.012-.373-.013-.377-.403-.383-.433-.007-.868.013-1.3-.013a.716.716 0 0 1-.674-.682c-.015-.349.245-.651.629-.722.097-.019.198-.023.298-.025l.225-.003h3.626c.58 0 .53.015.534-.554.002-.283-.01-.566.005-.848.048-.885.623-1.448 1.514-1.455 1.45-.012 2.901-.012 4.351 0zm-6.665 4.3c-.602 0-.658.058-.659.66-.002 1.813 0 3.628 0 5.442s-.002 3.628 0 5.443c0 .62.046.67.638.67 3.019.003 6.037.003 9.056 0 .533 0 .62-.081.62-.601.003-3.662.003-7.324 0-10.985 0-.545-.089-.628-.65-.628-3.002-.002-6.003-.002-9.005 0zm1.58 1.438c.342.02.63.278.678.623.02.147.014.298.014.448v7.184c0 .117.004.233-.003.35-.028.444-.309.733-.715.74-.385.005-.68-.254-.744-.667a1.538 1.538 0 0 1-.015-.232v-7.45c0-.166-.002-.332.056-.493a.746.746 0 0 1 .728-.503zm2.898 0c.47-.01.758.35.759.97.003 2.461.001 4.923 0 7.384 0 .116.004.235-.016.348-.072.404-.384.66-.766.642-.385-.019-.672-.3-.688-.714-.019-.465-.007-.931-.008-1.397v-2.544c0-1.248-.002-2.495.001-3.742.002-.602.26-.938.718-.947zm2.993 0c.38.02.672.307.693.717.018.365.006.732.006 1.097V17c0 .117.004.233-.003.35-.027.443-.308.735-.713.743-.404.008-.706-.272-.756-.71-.013-.115-.006-.233-.006-.35V9.799c0-.133-.007-.269.015-.399.066-.396.395-.67.764-.65zm-2.962-4.321c-.566 0-1.132-.008-1.697.003-.415.007-.522.123-.538.54-.007.183.01.367-.004.548-.02.262.095.354.349.35.615-.009 1.231-.002 1.847-.002.449 0 .898.008 1.347 0 1.033-.022.865.183.875-.903.003-.429-.1-.526-.532-.534-.55-.01-1.098-.002-1.647-.002z"/>
</svg>
