<svg width="32" height="32" viewBox="0 0 32 32">
    <g fill="none" fill-rule="evenodd">
        <circle cx="16" cy="16" r="14" fill="paintbrushRed"/>
            <g transform="translate(7,7)" >
                <path fill="#000000" fill-rule="evenodd" d="M11.183.01c.92.007 1.489.59 1.504 1.504.006.316-.003.632.003.948.007.388.011.396.389.402.466.008.933.003 1.4.003.817 0 1.634-.001 2.45.001.15 0 .302 0 .449.025.402.068.63.337.622.717-.008.366-.267.645-.657.69-.148.017-.3.009-.45.01-.25 0-.5-.002-.75 0-.487.004-.491.004-.491.495-.002 3.71-.001 7.42-.001 11.13 0 .166.002.333-.002.499-.015.704-.335 1.202-1.003 1.46-.062.024-.127.039-.158.106H3.578c-.092-.113-.24-.102-.358-.164-.511-.27-.814-.674-.838-1.263-.007-.166-.004-.332-.004-.499V5.044c0-.116.003-.233 0-.35-.012-.373-.013-.377-.403-.383-.433-.007-.868.013-1.3-.013-.38-.024-.66-.33-.674-.682-.015-.349.245-.651.629-.722.097-.019.198-.023.298-.025l.225-.003h3.626c.58 0 .53.015.534-.554.002-.283-.01-.566.005-.848C5.366.579 5.94.016 6.832.009c1.45-.012 2.901-.012 4.351 0zM6.097 5.747c-.315-.018-.615.19-.728.503-.058.16-.056.327-.056.493v7.45c0 .078.003.156.015.232.065.413.359.672.744.666.406-.006.687-.295.715-.74.007-.116.003-.232.003-.349V6.82c0-.15.006-.301-.014-.448-.048-.345-.336-.602-.679-.623zm2.899 0c-.457.01-.716.345-.718.947-.003 1.247 0 2.494 0 3.742v2.544c0 .466-.012.932.007 1.397.016.415.303.695.688.714.382.018.694-.238.766-.642.02-.113.016-.232.016-.348.001-2.461.003-4.923 0-7.384-.001-.62-.29-.98-.76-.97zm2.993 0c-.37-.019-.698.255-.764.651-.022.13-.015.266-.015.399v7.235c0 .116-.007.234.006.349.05.438.352.718.756.71.405-.008.686-.3.713-.744.007-.116.004-.232.004-.349V7.562c0-.365.01-.732-.007-1.097-.021-.41-.312-.696-.693-.716zM9.027 1.428c-.566 0-1.132-.008-1.697.003-.415.007-.522.123-.538.54-.007.183.01.367-.004.548-.02.262.095.354.349.35.615-.009 1.231-.002 1.847-.002.449 0 .898.008 1.347 0 1.033-.022.865.183.875-.903.003-.429-.1-.526-.532-.534-.55-.01-1.098-.002-1.647-.002z"/>
        </g>
    </g>
</svg>
