<svg width="75" height="85" viewBox="0 0 75 85" fill="none" xmlns="http://www.w3.org/2000/svg">
<path  d="M5.35714 77.0312C5.35714 79.1447 6.20376 81.1716 7.71075 82.666C9.21774 84.1604 11.2617 85 13.3929 85H61.6071C63.7383 85 65.7823 84.1604 67.2893 82.666C68.7962 81.1716 69.6429 79.1447 69.6429 77.0312V21.25H5.35714V77.0312ZM50.8929 34.5313C50.8929 33.8268 51.1751 33.1512 51.6774 32.653C52.1797 32.1549 52.861 31.875 53.5714 31.875C54.2818 31.875 54.9631 32.1549 55.4655 32.653C55.9678 33.1512 56.25 33.8268 56.25 34.5313V71.7188C56.25 72.4232 55.9678 73.0989 55.4655 73.597C54.9631 74.0952 54.2818 74.375 53.5714 74.375C52.861 74.375 52.1797 74.0952 51.6774 73.597C51.1751 73.0989 50.8929 72.4232 50.8929 71.7188V34.5313ZM34.8214 34.5313C34.8214 33.8268 35.1036 33.1512 35.606 32.653C36.1083 32.1549 36.7896 31.875 37.5 31.875C38.2104 31.875 38.8917 32.1549 39.394 32.653C39.8964 33.1512 40.1786 33.8268 40.1786 34.5313V71.7188C40.1786 72.4232 39.8964 73.0989 39.394 73.597C38.8917 74.0952 38.2104 74.375 37.5 74.375C36.7896 74.375 36.1083 74.0952 35.606 73.597C35.1036 73.0989 34.8214 72.4232 34.8214 71.7188V34.5313ZM18.75 34.5313C18.75 33.8268 19.0322 33.1512 19.5345 32.653C20.0369 32.1549 20.7182 31.875 21.4286 31.875C22.139 31.875 22.8203 32.1549 23.3226 32.653C23.8249 33.1512 24.1071 33.8268 24.1071 34.5313V71.7188C24.1071 72.4232 23.8249 73.0989 23.3226 73.597C22.8203 74.0952 22.139 74.375 21.4286 74.375C20.7182 74.375 20.0369 74.0952 19.5345 73.597C19.0322 73.0989 18.75 72.4232 18.75 71.7188V34.5313ZM72.3214 5.31253H52.2321L50.6585 2.20804C50.3251 1.54433 49.8116 0.986033 49.1758 0.595956C48.5399 0.205879 47.8069 -0.000502689 47.0592 2.9107e-05H27.9241C27.1781 -0.00281483 26.4464 0.202797 25.8127 0.593308C25.1791 0.983819 24.6692 1.54343 24.3415 2.20804L22.7679 5.31253H2.67857C1.96817 5.31253 1.28686 5.59238 0.784535 6.09052C0.282206 6.58867 0 7.2643 0 7.96878L0 13.2813C0 13.9858 0.282206 14.6614 0.784535 15.1595C1.28686 15.6577 1.96817 15.9375 2.67857 15.9375H72.3214C73.0318 15.9375 73.7131 15.6577 74.2155 15.1595C74.7178 14.6614 75 13.9858 75 13.2813V7.96878C75 7.2643 74.7178 6.58867 74.2155 6.09052C73.7131 5.59238 73.0318 5.31253 72.3214 5.31253Z" />
</svg>
