<?xml version="1.0" encoding="UTF-8"?>
<svg width="34px" height="33px" viewBox="0 0 34 33" version="1.1" xmlns="http://www.w3.org/2000/svg" xmlns:xlink="http://www.w3.org/1999/xlink">
    <g id="Symbols" stroke="none" stroke-width="1" fill="none" fill-rule="evenodd">
        <g id="Button/Edit">
            <g id="Symbols/check-ellipse-v2" transform="translate(2.000000, 2.000000)" fill="#FFFFFF" stroke="#00BDED" stroke-width="2">
                <ellipse id="Oval" cx="15.0012828" cy="14.7398539" rx="15.0012828" ry="14.7398539"></ellipse>
            </g>
            <g id="Group" transform="translate(8.429121, 8.317080)" fill="#00BDED" fill-rule="nonzero">
                <g id="Symbols/pencil">
                    <path d="M16.6713547,4.67279939 L15.12768,6.18957234 C14.9702943,6.34421526 14.715822,6.34421526 14.5584363,6.18957234 L10.8416094,2.53751903 C10.6842237,2.38287611 10.6842237,2.13283846 10.8416094,1.97819555 L12.3852842,0.461422594 C13.0114261,-0.153807531 14.029381,-0.153807531 14.658891,0.461422594 L16.6713547,2.43881488 C17.3008648,3.05407714 17.3008648,4.05425985 16.6713547,4.67279939 Z M9.51561942,3.28107739 C9.67300511,3.12643447 9.92747747,3.12643447 10.0881986,3.28107739 L13.8050254,6.93313071 C13.9624111,7.08777363 13.9624111,7.33781127 13.8050254,7.49245419 L5.0118968,16.1323762 L0.943478236,16.8331692 C0.394312362,16.9252866 -0.0845155471,16.4580806 0.0126038198,15.9185172 L0.722458101,11.9209994 L9.51561942,3.28107739 Z M2.9458703,13.9477116 L2.9458703,12.3684453 L1.73037401,12.3684453 L1.35200088,14.4905844 L2.39336901,15.5138045 L4.55314677,15.1420253 L4.55314677,13.9477116 L2.9458703,13.9477116 Z" id="p"></path>
                </g>
            </g>
        </g>
    </g>
</svg>
