<svg width="24" height="24" viewBox="0 0 24 24">
    <path fill="#000000" fill-rule="evenodd" d="M10.65 17.32c3.654.07 6.639-2.988 6.687-6.557.046-3.445-2.692-6.71-6.634-6.75-3.665-.037-6.672 2.97-6.68 6.637a6.62 6.62 0 0 0 6.626 6.67m8.688-6.73c-.003 1.86-.506 3.453-1.465 4.908-.384.582-.382.583.127 1.092 1.144 1.144 2.29 2.287 3.432 3.434.152.153.31.31.423.491.246.395.173.867-.154 1.19-.328.327-.794.394-1.193.142-.181-.114-.337-.272-.49-.425-1.175-1.17-2.344-2.344-3.52-3.514-.508-.506-.38-.456-.903-.099-1.494 1.023-3.156 1.549-4.952 1.537-2.102-.014-4.007-.685-5.588-2.091-2.538-2.26-3.554-5.108-2.822-8.425.742-3.364 2.884-5.558 6.197-6.51C13.265.933 18.37 4.207 19.21 9.175c.087.508.118 1.017.127 1.417"/>
</svg>
