
<svg width="20" height="20" viewBox="0 0 20 20">
    <g fill="none" fill-rule="evenodd">
        <path fill="brand" fill-opacity="0" d="M0 0H20V20H0z"/>
        <path  fill="white" d="M10 1.667c4.602 0 8.333 3.73 8.333 8.333 0 4.602-3.73 8.333-8.333 8.333-4.602 0-8.333-3.73-8.333-8.333 0-4.602 3.73-8.333 8.333-8.333zm2.886 5.447c-.319-.319-.836-.319-1.154 0L10 8.846 8.268 7.114c-.318-.319-.835-.319-1.154 0-.319.319-.319.836 0 1.154L8.846 10l-1.732 1.732c-.319.318-.319.835 0 1.154.319.319.836.319 1.154 0L10 11.154l1.732 1.732c.318.319.835.319 1.154 0 .319-.319.319-.836 0-1.154L11.154 10l1.732-1.732c.319-.318.319-.835 0-1.154z"/>
    </g>
</svg>
