<svg width="35" height="35" viewBox="0 0 35 35" fill="none" xmlns="http://www.w3.org/2000/svg">
<circle cx="17.5" cy="17.5" r="17" fill="transparent" stroke="transparent"/>
<path d="M28.2143 14.8214H20.1786V6.78571C20.1786 5.79967 19.3789 5 18.3929 5H16.6071C15.6211 5 14.8214 5.79967 14.8214 6.78571V14.8214H6.78571C5.79967 14.8214 5 15.6211 5 16.6071V18.3929C5 19.3789 5.79967 20.1786 6.78571 20.1786H14.8214V28.2143C14.8214 29.2003 15.6211 30 16.6071 30H18.3929C19.3789 30 20.1786 29.2003 20.1786 28.2143V20.1786H28.2143C29.2003 20.1786 30 19.3789 30 18.3929V16.6071C30 15.6211 29.2003 14.8214 28.2143 14.8214Z"/>
</svg>
