<svg width="24" height="24" viewBox="0 0 24 24">
    <path fill="brand" fill-rule="evenodd" d="M7.092 9.963c-.123-.187-.123-.37 0-.548.104-.18.284-.277.54-.293.009-.008.214-.02.616-.037.402-.016.962-.034 1.681-.055a73.345 73.345 0 0 1 4.142 0c.719.02 1.279.04 1.68.055.403.017.608.029.618.037a.673.673 0 0 1 .539.293c.123.178.123.361 0 .548a18.968 18.968 0 0 1-1.88 2.378c-.751.822-1.333 1.42-1.744 1.793-.412.374-.688.614-.83.72A.745.745 0 0 1 12 15a.745.745 0 0 1-.454-.146 14.352 14.352 0 0 1-.83-.72c-.411-.374-.993-.971-1.744-1.793a18.968 18.968 0 0 1-1.88-2.378z"/>
</svg>
