<svg width="24" height="24" viewBox="0 0 24 24">
    <path  fill-rule="evenodd" d="M13.964 3a2.39 2.39 0 0 1 1.848.816c.502.553 1.034 1.08 1.537 1.632a.886.886 0 0 0 .74.317c.561-.019 1.124-.01 1.687-.004 1.197.014 2.067.806 2.203 2.003.016.149.02.3.02.449l.001 9.79c0 .35-.02.7-.117 1.038-.327 1.138-1.29 1.876-2.543 1.953-.165.01-.33.005-.496.005H4.994c-.365.001-.728-.024-1.079-.13-1.098-.336-1.844-1.306-1.908-2.48l-.005-.175v-.175c0-3.213.002-6.427-.002-9.64 0-.336.028-.666.13-.985a2.382 2.382 0 0 1 2.2-1.65c.546-.013 1.096-.04 1.638.005.579.048 1.006-.12 1.377-.583.393-.491.867-.916 1.29-1.383C9.137 3.252 9.758 3 10.49 3h3.475zm-3.423 1.627a.97.97 0 0 0-.785.337c-.504.551-1.033 1.08-1.534 1.633-.489.538-1.075.8-1.804.772-.545-.02-1.09-.005-1.637-.004-.943.003-1.157.22-1.157 1.186v9.336c0 .2 0 .401.03.597.072.47.43.811.897.864.164.019.33.013.496.013h6.946c2.381 0 4.763-.018 7.144.01.812.01 1.25-.568 1.246-1.219-.02-3.344-.008-6.69-.01-10.034-.001-.557-.186-.74-.748-.75a32.405 32.405 0 0 0-1.637 0c-.71.024-1.282-.234-1.76-.757-.514-.564-1.053-1.105-1.57-1.667a.925.925 0 0 0-.743-.316c-1.125.011-2.25.013-3.374 0zm1.59 3.387c2.631.014 4.767 2.276 4.775 5.055.007 2.807-2.136 5.093-4.782 5.1-2.634.005-4.815-2.299-4.811-5.082C7.316 10.299 9.5 8 12.132 8.014zm.016 1.73c-1.786-.012-3.206 1.459-3.213 3.327-.006 1.878 1.394 3.363 3.176 3.367 1.775.003 3.2-1.492 3.196-3.354-.003-1.841-1.411-3.33-3.16-3.34z"/>
</svg>
