<?xml version="1.0" encoding="utf-8"?>
<svg version="1.1" xmlns:xlink="http://www.w3.org/1999/xlink" width="24px" height="24px" xmlns="http://www.w3.org/2000/svg">
  <g transform="matrix(1 0 0 1 -57 -169 )">
    <path d="M 9.524999999999999 18.075000000000003  L 8.925 18.525  C 8.428125000000001 18.9  7.7250000000000005 18.796875  7.3500000000000005 18.299999999999997  C 6.9750000000000005 17.803125  7.035937499999999 17.1  7.574999999999999 16.725  L 8.175 16.275  C 9.928125000000001 14.962499999999999  12.060937500000001 14.25  14.25 14.25  L 16.125 14.25  C 16.7484375 14.25  17.25 14.751562499999999  17.25 15.375  C 17.25 15.998437500000001  16.7484375 16.5  16.125 16.5  L 14.25 16.5  C 12.548437499999999 16.5  10.889062500000001 17.053125  9.524999999999999 18.075000000000003  Z M 8.26875 8.25  C 9.09375 8.25  9.76875 8.920312500000001  9.76875 9.75  C 9.76875 10.579687499999999  9.09375 11.25  8.26875 11.25  C 7.4390624999999995 11.25  6.768750000000001 10.579687499999999  6.768750000000001 9.75  C 6.768750000000001 8.920312500000001  7.4390624999999995 8.25  8.26875 8.25  Z M 15.768749999999999 11.25  C 14.939062499999999 11.25  14.268749999999999 10.579687499999999  14.268749999999999 9.75  C 14.268749999999999 8.920312500000001  14.939062499999999 8.25  15.768749999999999 8.25  C 16.59375 8.25  17.268749999999997 8.920312500000001  17.268749999999997 9.75  C 17.268749999999997 10.579687499999999  16.59375 11.25  15.768749999999999 11.25  Z M 12 0  C 18.628124999999997 0  24 5.371874999999999  24 12  C 24 18.628124999999997  18.628124999999997 24  12 24  C 5.371874999999999 24  0 18.628124999999997  0 12  C 0 5.371874999999999  5.371874999999999 0  12 0  Z M 21.75 12  C 21.75 6.614062499999999  17.385937499999997 2.25  12 2.25  C 6.614062499999999 2.25  2.25 6.614062499999999  2.25 12  C 2.25 17.385937499999997  6.614062499999999 21.75  12 21.75  C 17.385937499999997 21.75  21.75 17.385937499999997  21.75 12  Z " fill-rule="nonzero" fill="#ffffff" stroke="none" transform="matrix(1 0 0 1 57 169 )" />
  </g>
</svg>