<svg width="11" height="14" viewBox="0 0 11 14" fill="none" xmlns="http://www.w3.org/2000/svg">
    <path
        d="M5.50716 0.333252C4.0403 0.333252 2.84049 1.53306 2.84049 2.99992V4.33325H1.67383C0.851328 4.33325 0.173828 5.01075 0.173828 5.83325V12.1666C0.173828 12.9891 0.851328 13.6666 1.67383 13.6666H9.3405C10.163 13.6666 10.8405 12.9891 10.8405 12.1666V5.83325C10.8405 5.01075 10.163 4.33325 9.3405 4.33325H8.17383V2.99992C8.17383 1.53306 6.97402 0.333252 5.50716 0.333252ZM5.50716 1.33325C6.43363 1.33325 7.17383 2.07345 7.17383 2.99992V4.33325H3.84049V2.99992C3.84049 2.07345 4.58069 1.33325 5.50716 1.33325ZM1.67383 5.33325H9.3405C9.62266 5.33325 9.8405 5.55109 9.8405 5.83325V12.1666C9.8405 12.4488 9.62266 12.6666 9.3405 12.6666H1.67383C1.39166 12.6666 1.17383 12.4488 1.17383 12.1666V5.83325C1.17383 5.55109 1.39166 5.33325 1.67383 5.33325ZM5.50716 7.99992C5.24195 7.99992 4.98759 8.10528 4.80005 8.29281C4.61252 8.48035 4.50716 8.7347 4.50716 8.99992C4.50716 9.26514 4.61252 9.51949 4.80005 9.70703C4.98759 9.89456 5.24195 9.99992 5.50716 9.99992C5.77238 9.99992 6.02673 9.89456 6.21427 9.70703C6.4018 9.51949 6.50716 9.26514 6.50716 8.99992C6.50716 8.7347 6.4018 8.48035 6.21427 8.29281C6.02673 8.10528 5.77238 7.99992 5.50716 7.99992Z" />
</svg>