<svg width="25" height="24" viewBox="0 0 25 24">
    <path
            d="M21.736 3.066c-.451-.067-.87.235-.983.687l-.02.107-.447 3.339c-1.955-3.775-6.089-5.919-10.28-4.978C4.887 3.369 1.62 8.678 2.708 14.079c1.088 5.4 6.118 8.848 11.235 7.7.569-.127.932-.717.81-1.317-.12-.6-.679-.983-1.248-.856-3.98.893-7.892-1.788-8.738-5.99-.846-4.2 1.695-8.33 5.675-9.222 3.587-.805 7.118 1.293 8.4 4.79l-3.697-.796c-.446-.096-.882.178-1.021.621l-.027.106c-.091.468.169.927.591 1.073l.1.028 5.768 1.242c.468.101.921-.205 1.038-.68l.02-.104.876-6.555c.069-.51-.27-.982-.755-1.053z"/>
</svg>
