<svg width="25" height="14" viewBox="0 0 25 14" fill="none" xmlns="http://www.w3.org/2000/svg">
    <path
        d="M6.77468 2.51924e-07C6.93713 0.000423223 7.09579 0.0548566 7.23041 0.156358C7.36504 0.25786 7.46953 0.40183 7.53057 0.569906C7.59161 0.737982 7.60642 0.922545 7.57312 1.10006C7.53982 1.27757 7.45991 1.43999 7.34359 1.56659L3.29072 6.09231H23.6563C23.7658 6.08841 23.8749 6.10913 23.9771 6.15323C24.0793 6.19734 24.1725 6.26392 24.2512 6.34904C24.3299 6.43415 24.3925 6.53606 24.4352 6.6487C24.478 6.76135 24.5 6.88243 24.5 7.00476C24.5 7.1271 24.478 7.24818 24.4352 7.36083C24.3925 7.47347 24.3299 7.57538 24.2512 7.66049C24.1725 7.74561 24.0793 7.81219 23.9771 7.8563C23.8749 7.9004 23.7658 7.92112 23.6563 7.91722H3.29072L7.34359 12.442C7.4195 12.5268 7.47972 12.6274 7.5208 12.7381C7.56188 12.8488 7.58302 12.9675 7.58302 13.0873C7.58302 13.2072 7.56188 13.3259 7.5208 13.4366C7.47972 13.5473 7.4195 13.6479 7.34359 13.7327C7.26769 13.8174 7.17757 13.8847 7.07839 13.9305C6.97921 13.9764 6.87291 14 6.76556 14C6.65821 14 6.55191 13.9764 6.45273 13.9305C6.35355 13.8847 6.26344 13.8174 6.18753 13.7327L0.738915 7.64964C0.585923 7.47849 0.5 7.24657 0.5 7.00476C0.5 6.76296 0.585923 6.53104 0.738915 6.35989L6.18753 0.276839C6.26381 0.189159 6.35509 0.119475 6.45595 0.0719207C6.55681 0.0243661 6.6652 -9.05508e-05 6.77468 2.51924e-07Z" />
</svg>