<svg width="13" height="16" viewBox="0 0 13 16" xmlns="http://www.w3.org/2000/svg">
<path d="M6.75 3.25C5.51387 3.25 4.30549 3.61656 3.27769 4.30331C2.24988 4.99007 1.4488 5.96619 0.975756 7.10823C0.502708 8.25027 0.378937 9.50693 0.620095 10.7193C0.861252 11.9317 1.45651 13.0453 2.33058 13.9194C3.20466 14.7935 4.31831 15.3887 5.53069 15.6299C6.74307 15.8711 7.99973 15.7473 9.14177 15.2742C10.2838 14.8012 11.2599 14.0001 11.9467 12.9723C12.6334 11.9445 13 10.7361 13 9.5C13 7.8424 12.3415 6.25268 11.1694 5.08058C9.99732 3.90848 8.4076 3.25 6.75 3.25V3.25ZM10.3594 7.52083L6.79167 12.3594C6.75015 12.4159 6.69763 12.4636 6.63726 12.4993C6.57689 12.5351 6.50992 12.5583 6.44036 12.5675C6.3708 12.5768 6.30008 12.5719 6.23247 12.5531C6.16485 12.5343 6.10172 12.5021 6.04688 12.4583L3.5 10.4219C3.4465 10.3789 3.40202 10.3258 3.36911 10.2655C3.33621 10.2053 3.31554 10.1392 3.30828 10.0709C3.30102 10.0027 3.30731 9.93368 3.32681 9.86788C3.34631 9.80207 3.37861 9.74077 3.42188 9.6875C3.50842 9.58248 3.63263 9.5155 3.76794 9.5009C3.90324 9.4863 4.03888 9.52524 4.14584 9.60937L6.27083 11.3073L9.52083 6.89583C9.60284 6.78601 9.72483 6.71294 9.86035 6.69247C9.99587 6.67199 10.134 6.70576 10.2448 6.78646C10.301 6.82675 10.3487 6.87784 10.385 6.93676C10.4213 6.99568 10.4455 7.06124 10.4561 7.12961C10.4668 7.19798 10.4637 7.26779 10.4471 7.33496C10.4305 7.40213 10.4007 7.46532 10.3594 7.52083V7.52083Z" />
</svg>
