<svg width="20" height="21" viewBox="0 0 20 21">
    <path fill-rule="evenodd" d="M16.888 1.59c-.126-.6-.69-.98-1.261-.848L.832 4.149c-.571.132-.932.725-.807 1.324l1.792 8.575-.41 3.466c-.071.61.34 1.165.921 1.245l15.031 1.947c.58.08 1.11-.347 1.181-.96l1.452-12.293c.072-.61-.34-1.165-.92-1.24l-.792-.103c-.275-.036-.5-.25-.56-.536l-.832-3.985zm-9.1 3.154c-.251-.032-.269-.409-.021-.467l7.22-1.705c.296-.07.59.126.657.438l.52 2.43c.043.198-.114.38-.306.355l-8.07-1.05zM1.669 6.22c-.056-.264.102-.526.353-.586l.419-.098c.191-.046.368.122.344.327L2.552 7.82c-.037.318-.468.34-.535.027L1.668 6.22zm1.827 11.176c-.301-.037-.517-.325-.481-.642L4.163 6.588c.035-.317.31-.544.611-.506l13.113 1.634c.302.037.518.325.482.641L17.22 18.52c-.036.32-.31.546-.612.506l-13.113-1.63zm13.095-7.112c0-.646-.5-1.17-1.115-1.17-.616 0-1.115.524-1.115 1.17 0 .647.5 1.17 1.115 1.17.616 0 1.115-.523 1.115-1.17zm-3.403 2.199c-.16-.26-.504-.302-.716-.089l-.443.445c-.25.252-.657.202-.845-.104l-1.198-1.94c-.219-.356-.692-.414-.984-.122l-4.2 4.216c-.265.266-.116.736.248.783l10.218 1.298c.296.038.5-.305.338-.568l-2.418-3.92z"/>
</svg>
