<svg width="96" height="96" viewBox="0 0 96 96">

    <g fill-rule="evenodd">


        <path d="M48.546 25.5c11.193 0 15.827 7.757 17.64 10.619 3.221 5.083 2.978 14.772-2.188 20.75l-.366.427c-4.718 5.56-3.11 5.728-1.805 7.476.685.917 6.105 2.026 11.47 5.741 3.819 2.645 7.598 6.702 9.953 10.243C74.405 90.136 61.799 96 47.809 96c-13.79 0-26.234-5.697-35.059-14.841 2.169-3.596 5.893-8.303 9.679-10.646 6.284-3.888 11.63-5.048 12.835-5.741l.182-.109c1.888-1.163 2.054-2.61-1.713-7.137l-.556-.657c-4.464-5.198-5.661-14.919-2.272-20.75l.31-.525c1.923-3.207 6.76-10.094 17.33-10.094z" />
    </g>
</svg>
