<?xml version="1.0" encoding="UTF-8"?>
<svg width="68px" height="70px" viewBox="0 0 68 70" version="1.1" xmlns="http://www.w3.org/2000/svg" xmlns:xlink="http://www.w3.org/1999/xlink">
            <path d="M33.4516129,13.1612903 C35.7237067,13.1612903 37.8372812,13.7293141 39.7923387,14.8653604 C41.7473963,16.0014067 43.2929481,17.5469586 44.4289945,19.5020161 C45.5650407,21.4570737 46.1330645,23.5706481 46.1330645,25.8427419 C46.1330645,28.1148357 45.5650407,30.2284102 44.4289945,32.1834678 C43.2929481,34.1385253 41.7473963,35.6840772 39.7923387,36.8201235 C37.8372812,37.9561698 35.7237067,38.5241936 33.4516129,38.5241936 C31.1795191,38.5241936 29.0659446,37.9561698 27.1108871,36.8201235 C25.1558295,35.6840772 23.6102777,34.1385253 22.4742313,32.1834678 C21.3381851,30.2284102 20.7701613,28.1148357 20.7701613,25.8427419 C20.7701613,23.5706481 21.3381851,21.4570737 22.4742313,19.5020161 C23.6102777,17.5469586 25.1558295,16.0014067 27.1108871,14.8653604 C29.0659446,13.7293141 31.1795191,13.1612903 33.4516129,13.1612903 Z M47.9560232,39.6338206 C49.646883,40.0565352 51.0339168,40.9548055 52.1171245,42.328629 C53.2003322,43.7024526 53.7419355,45.2612147 53.7419355,47.0049143 L53.7419355,49.9375 C53.7419355,50.9942872 53.3720594,51.8925575 52.6323085,52.6323085 C51.8925575,53.3720594 50.9942872,53.7419355 49.9375,53.7419355 L16.9657258,53.7419355 C15.9089386,53.7419355 15.0106683,53.3720594 14.2709173,52.6323085 C13.5311664,51.8925575 13.1612903,50.9942872 13.1612903,49.9375 L13.1612903,47.0049143 C13.1612903,45.2612147 13.7028936,43.7024526 14.7861013,42.328629 C15.869309,40.9548055 17.2563428,40.0565352 18.9472026,39.6338206 L24.5745968,38.2071573 C27.0580473,40.0036966 29.8585354,40.9548055 32.9760585,41.0604839 C36.4106179,41.1661622 39.5281422,40.2150534 42.328629,38.2071573 L47.9560232,39.6338206 Z" id="user-copy-3" ></path>
            </svg>