<?xml version="1.0" encoding="UTF-8"?>
<svg width="68px" height="68px" viewBox="0 0 68 68" version="1.1" xmlns="http://www.w3.org/2000/svg" xmlns:xlink="http://www.w3.org/1999/xlink">
    <title>Group 2</title>
    <defs>
        <linearGradient x1="10.6974754%" y1="4.66782717%" x2="93.9089647%" y2="92.9592052%" id="linearGradient-1">
            <stop stop-color="#F2FCFF" offset="0%"></stop>
            <stop stop-color="#00BDED" offset="100%"></stop>
        </linearGradient>
    </defs>
    <g id="-Symbols" stroke="none" stroke-width="1" fill="none" fill-rule="evenodd">
        <g id="Group-2" transform="translate(0.000000, -0.000000)">
            <g id="Profile/Silhouette-Profile-Photo">
                <path d="M33.575,14.45 C35.7832296,14.45 37.8373954,15.0020577 39.7375,16.1061719 C41.6376046,17.2102861 43.1397139,18.7123954 44.2438281,20.6125 C45.3479423,22.5126046 45.9,24.5667704 45.9,26.775 C45.9,28.9832296 45.3479423,31.0373954 44.2438281,32.9375 C43.1397139,34.8376046 41.6376046,36.3397139 39.7375,37.4438281 C37.8373954,38.5479423 35.7832296,39.1 33.575,39.1 C31.3667704,39.1 29.3126046,38.5479423 27.4125,37.4438281 C25.5123954,36.3397139 24.0102861,34.8376046 22.9061719,32.9375 C21.8020577,31.0373954 21.25,28.9832296 21.25,26.775 C21.25,24.5667704 21.8020577,22.5126046 22.9061719,20.6125 C24.0102861,18.7123954 25.5123954,17.2102861 27.4125,16.1061719 C29.3126046,15.0020577 31.3667704,14.45 33.575,14.45 Z M47.9751953,39.655102 C49.6043616,40.0714282 50.9407874,40.9561228 51.9844727,42.3091837 C53.0281579,43.6622445 53.55,45.197449 53.55,46.9147959 L53.55,49.8030612 C53.55,50.8438772 53.1936194,51.7285718 52.4808594,52.4571429 C51.7680993,53.1857139 50.9026038,53.55 49.884375,53.55 L18.115625,53.55 C17.0973962,53.55 16.2319007,53.1857139 15.5191406,52.4571429 C14.8063806,51.7285718 14.45,50.8438772 14.45,49.8030612 L14.45,46.9147959 C14.45,45.197449 14.9718421,43.6622445 16.0155273,42.3091837 C17.0592126,40.9561228 18.3956384,40.0714282 20.0248047,39.655102 L25.446875,38.25 C27.8397132,40.0193882 30.5380212,40.9561228 33.5417969,41.0602041 C36.8510413,41.1642853 39.8548181,40.2275506 42.553125,38.25 L47.9751953,39.655102 Z" id="user-copy-15" fill="#FFFFFF" opacity="0.268043155"></path>
                <circle id="user" stroke="#00BDED" stroke-width="3" fill="url(#linearGradient-1)" cx="34" cy="34" r="32.5"></circle>
                <path d="M33.575,14.45 C35.7832296,14.45 37.8373954,15.0020577 39.7375,16.1061719 C41.6376046,17.2102861 43.1397139,18.7123954 44.2438281,20.6125 C45.3479423,22.5126046 45.9,24.5667704 45.9,26.775 C45.9,28.9832296 45.3479423,31.0373954 44.2438281,32.9375 C43.1397139,34.8376046 41.6376046,36.3397139 39.7375,37.4438281 C37.8373954,38.5479423 35.7832296,39.1 33.575,39.1 C31.3667704,39.1 29.3126046,38.5479423 27.4125,37.4438281 C25.5123954,36.3397139 24.0102861,34.8376046 22.9061719,32.9375 C21.8020577,31.0373954 21.25,28.9832296 21.25,26.775 C21.25,24.5667704 21.8020577,22.5126046 22.9061719,20.6125 C24.0102861,18.7123954 25.5123954,17.2102861 27.4125,16.1061719 C29.3126046,15.0020577 31.3667704,14.45 33.575,14.45 Z M47.9751953,39.655102 C49.6043616,40.0714282 50.9407874,40.9561228 51.9844727,42.3091837 C53.0281579,43.6622445 53.55,45.197449 53.55,46.9147959 L53.55,49.8030612 C53.55,50.8438772 53.1936194,51.7285718 52.4808594,52.4571429 C51.7680993,53.1857139 50.9026038,53.55 49.884375,53.55 L18.115625,53.55 C17.0973962,53.55 16.2319007,53.1857139 15.5191406,52.4571429 C14.8063806,51.7285718 14.45,50.8438772 14.45,49.8030612 L14.45,46.9147959 C14.45,45.197449 14.9718421,43.6622445 16.0155273,42.3091837 C17.0592126,40.9561228 18.3956384,40.0714282 20.0248047,39.655102 L25.446875,38.25 C27.8397132,40.0193882 30.5380212,40.9561228 33.5417969,41.0602041 C36.8510413,41.1642853 39.8548181,40.2275506 42.553125,38.25 L47.9751953,39.655102 Z" id="user-copy-15" fill="#FFFFFF" opacity="0.962379092"></path>
            
            
            </g>
        </g>
    </g>
</svg>