<svg width="24" height="24" viewBox="0 0 24 24">
    <path fill="#000000" d="M12.447 4.01c2.507.14 5.042 2.105 5.491 5.312.162 1.157-.012 2.416-.315 3.545C16.978 15.267 13.1 20 11.99 20c-1.11 0-4.676-4.244-5.616-7.344-.457-1.505-.539-3.15 0-4.65.943-2.632 3.268-4.15 6.073-3.995zM7.76 8.627c-.403 1.146-.338 2.292-.015 3.438.476 1.69 3.549 6.053 4.245 6.053.697 0 3.282-3.414 3.995-5.25.315-.81.518-1.654.516-2.542-.005-.267-.007-.534-.048-.8-.362-2.36-2.278-3.905-4.2-4.01-1.96-.108-3.803 1.145-4.493 3.11zm4.276-1.04c1.454-.005 2.52.967 2.751 2.371.071.43.012.842-.123 1.246a2.721 2.721 0 0 1-2.694 1.865c-1.29-.039-2.32-.925-2.602-2.173-.313-1.391.563-2.837 1.948-3.21l.72-.099zm.125 1.312c-.77-.001-1.384.515-1.504 1.208-.113.655.26 1.325.887 1.574.145.057.302.094.456.108.748.068 1.438-.522 1.534-1.3.087-.7-.423-1.399-1.144-1.562-.097-.022-.197-.024-.229-.028z"/>
</svg>
