 <svg  version="1.0" xmlns="http://www.w3.org/2000/svg"  width="300.000000pt" height="300.000000pt" viewBox="0 0 300.000000 300.000000"  preserveAspectRatio="xMidYMid meet">  
 <g transform="translate(0.000000,300.000000) scale(0.100000,-0.100000)" stroke="none"> 
 <path d="M359 2982 c-124 -33 -248 -132 -305 -243 -44 -88 -54 -157 -54 -382 0 -208 0 -208 25 -232 29 -30 64 -32 98 -5 l25 20 4 222 c4 219 4 224 32 284 34 76 93 135 171 171 59 27 64 28 283 31 l222 4 20 25 c27 34 25 69 -5 98 l-24 25 -213 -1 c-168 0 -227 -4 -279 -17z"/> <path d="M2125 2975 c-30 -29 -32 -64 -5 -98 l20 -25 222 -4 c219 -4 224 -4 284 -32 76 -34 135 -93 171 -171 27 -59 28 -64 31 -283 l4 -222 25 -20 c34 -27 69 -25 98 5 l25 24 -1 213 c0 243 -11 306 -69 402 -42 69 -124 148 -191 182 -88 44 -157 54 -382 54 -208 0 -208 0 -232 -25z"/> <path d="M846 1929 l-26 -20 0 -149 0 -149 26 -20 c35 -27 57 -26 91 3 l28 24 0 142 0 142 -28 24 c-34 29 -56 30 -91 3z"/> <path d="M1545 1938 c-44 -25 -44 -30 -45 -343 0 -165 -4 -306 -9 -314 -5 -8 -37 -16 -76 -20 -76 -8 -95 -24 -95 -78 0 -55 28 -73 113 -73 118 0 189 49 217 149 6 20 10 165 10 334 l0 299 -29 29 c-31 31 -54 35 -86 17z"/> <path d="M2079 1921 l-29 -29 0 -132 0 -132 29 -29 c36 -35 64 -37 96 -4 24 23 25 29 25 165 0 136 -1 142 -25 165 -32 33 -60 31 -96 -4z"/> <path d="M976 899 c-19 -15 -26 -29 -26 -56 0 -30 8 -43 45 -77 268 -247 742 -247 1010 0 37 34 45 47 45 77 0 27 -7 41 -26 56 -41 32 -72 26 -134 -24 -111 -92 -235 -135 -390 -135 -155 0 -279 43 -390 135 -62 50 -93 56 -134 24z"/> <path d="M25 875 l-25 -24 1 -213 c0 -243 11 -306 69 -401 43 -71 98 -126 173 -171 91 -54 163 -66 402 -66 205 0 206 0 230 25 30 29 32 64 5 98 l-20 25 -222 4 c-219 3 -224 4 -283 31 -78 36 -137 95 -171 171 -28 60 -28 65 -32 284 l-4 222 -25 20 c-34 27 -69 25 -98 -5z"/> <path d="M2877 880 l-25 -20 -4 -222 c-4 -219 -4 -224 -32 -284 -34 -76 -93 -135 -171 -171 -59 -27 -64 -28 -283 -31 l-222 -4 -20 -25 c-27 -34 -25 -69 5 -98 l24 -25 213 1 c243 0 306 11 402 69 69 42 148 124 182 191 44 88 54 157 54 382 0 208 0 208 -25 232 -29 30 -64 32 -98 5z"/> </g> </svg> 