<?xml version="1.0" encoding="utf-8"?>
<svg version="1.1" xmlns:xlink="http://www.w3.org/1999/xlink" width="44px" height="44px" xmlns="http://www.w3.org/2000/svg">
  <g transform="matrix(1 0 0 1 -164 -167 )">
    <path d="M 44 22  C 44 9.848437500000003  34.1515625 0  22 0  C 9.8484375 0  0 9.8484375  0 22  C 0 34.1515625  9.8484375 44  22 44  C 34.1515625 44  44 34.1515625  44 22  Z M 39.875 22  C 39.875 31.856171875  31.85703125 39.875  22 39.875  C 12.142968750000001 39.875  4.125 31.856171875  4.125 22  C 4.125 12.143828125  12.142968750000001 4.125  22 4.125  C 31.85703125 4.125  39.875 12.143828125  39.875 22  Z M 24.75 31.625  C 24.75 30.078125  23.469531250000003 28.875  22 28.875  C 20.453125 28.875  19.25 30.078125  19.25 31.625  C 19.25 33.171875  20.37578125 34.375  22 34.375  C 23.469531250000003 34.375  24.75 33.171875  24.75 31.625  Z M 30.860156250000003 17.015625  C 30.9375 13.6640625  28.2734375 11  24.844531250000003 11  L 20.453125000000004 11  C 17.1015625 11  14.4375 13.6640625  14.4375 17.015625  C 14.4375 18.1328125  15.3828125 19.078125  16.5 19.078125  C 17.6171875 19.078125  18.5625 18.1328125  18.5625 17.015625  C 18.5625 15.984375  19.34453125 15.125  20.37578125 15.125  L 24.7671875 15.125  C 25.875781250000003 15.125  26.8125 15.984375  26.8125 17.015625  C 26.8125 17.703125  26.46875 18.22734375  25.8671875 18.57109375  L 20.96875 21.5703125  C 20.28125 22  19.9375 22.6875  19.9375 23.375  L 19.9375 24.75  C 19.9375 25.8671875  20.8828125 26.8125  22 26.8125  C 23.1171875 26.8125  24.0625 25.8671875  24.0625 24.75  L 24.0625 24.578125  L 27.938281250000003 22.171875  C 29.742968750000003 21.0546875  30.860156250000003 19.078125  30.860156250000003 17.015625  Z " fill-rule="nonzero" fill="#cf4a18" stroke="none" transform="matrix(1 0 0 1 164 167 )" />
  </g>
</svg>