<?xml version="1.0" encoding="utf-8"?>
<svg version="1.1" xmlns:xlink="http://www.w3.org/1999/xlink" width="9px" height="15px" xmlns="http://www.w3.org/2000/svg">
  <g transform="matrix(1 0 0 1 -325 -176 )">
    <path d="M 0.3255721030042915 0.23283062645011593  C 0.6948927038626608 -0.08700696055684454  1.282403433476395 -0.07587006960556843  1.6339055793991415 0.2578886310904871  L 8.706437768240342 6.908700696055684  C 8.879060085836908 7.069663573085847  8.964772532188839 7.27830626450116  8.964772532188839 7.486078886310905  C 8.964772532188839 7.693851508120649  8.879060085836908 7.902668213457076  8.706437768240342 8.063457076566126  L 1.633905579399141 14.714269141531322  C 1.2803948497854072 15.048167053364267  0.6937339055793983 15.059025522041763  0.32446351931330386 14.739281902552204  C -0.047317596566524484 14.42170649651972  -0.059407725321889385 13.890790023201856  0.2967025751072953 13.559119489559164  L 6.785972961373389 7.4547111368909516  L 0.297811158798283 1.4129930394431551  C -0.05828755364806869 1.0823665893271461  -0.04619742489270433 0.550580046403712  0.3255721030042915 0.23283062645011593  Z " fill-rule="nonzero" stroke="none" transform="matrix(1 0 0 1 325 176 )" />
  </g>
</svg>