<svg width="24" height="24" viewBox="0 0 24 24">
    <g>
        <path d="M10.807 7.28h4.548c.462 0 .835.322.835.717 0 .182-.08.356-.224.489l-11.34 10.81c-.315.29-.844.305-1.181.035-.235-.188-.324-.476-.227-.739l3.553-6.614c.155-.29.047-.65-.243-.806-.087-.046-.183-.07-.282-.07H1.788c-.462 0-.836-.321-.836-.717 0-.19.088-.372.245-.506L7.114.765c.116-.18.324-.289.548-.289h5.278c.355 0 .642.27.642.602 0 .109-.031.216-.091.31l-3.185 4.977c-.177.277-.097.645.18.822.096.061.207.094.321.094zM13.942 19.288c.114 0 .211-.032.29-.096.079-.064.132-.135.159-.212l.544-1.487h3.019l.544 1.487c.034.087.088.16.164.22.076.058.172.088.29.088H20L17.137 12h-1.386l-2.862 7.288h1.053zm3.664-2.752h-2.323l.887-2.414c.043-.111.088-.24.133-.388.046-.148.092-.308.139-.48.047.172.095.331.144.477.048.146.093.273.133.38l.887 2.425z"
              transform="translate(2 2)"/>
    </g>
</svg>
