<svg width="24" height="24" viewBox="0 0 24 24">
    <g>
        <path d="M9.855 6.805h4.548c.461 0 .835.32.835.716 0 .182-.08.356-.225.489L3.673 18.82c-.315.29-.843.305-1.18.035-.236-.188-.324-.476-.227-.74l3.552-6.613c.156-.29.047-.65-.242-.806-.087-.046-.184-.07-.282-.07H.835c-.461 0-.835-.321-.835-.717 0-.19.088-.372.245-.507L6.162.29C6.278.109 6.486 0 6.71 0h5.278c.355 0 .642.27.642.602 0 .109-.032.216-.092.31L9.353 5.888c-.177.277-.096.645.181.822.096.061.207.094.32.094zM14.152 19c.093 0 .166-.026.22-.08.052-.052.102-.111.148-.176l1.64-2.384c.065-.106.114-.225.146-.359l1.772 2.743c.037.065.084.124.142.177.058.053.138.079.24.079h1.188l-2.467-3.655L19.551 12h-1.14c-.07 0-.127.02-.174.059-.046.039-.092.09-.139.155l-1.514 2.211c-.079.13-.14.258-.18.387l-1.724-2.625c-.037-.06-.078-.106-.125-.139-.046-.032-.12-.048-.222-.048h-1.188l2.369 3.414L13.048 19h1.104z"
              transform="translate(2 2)"/>
    </g>
</svg>
