<svg width="24" height="24" viewBox="0 0 24 24">
    <path d="M13.964 3c.733.001 1.348.265 1.848.816.502.553 1.034 1.08 1.537 1.632.207.227.432.327.74.317.561-.019 1.124-.01 1.687-.004 1.197.014 2.067.806 2.202 2.003.017.149.02.3.02.449.002 3.263.001 6.526.002 9.79 0 .35-.02.7-.117 1.038-.327 1.138-1.29 1.876-2.543 1.953-.165.01-.33.005-.496.005H4.994c-.365.001-.728-.024-1.079-.13-1.098-.336-1.844-1.306-1.908-2.48l-.005-.175v-.175c0-3.213.002-6.427-.002-9.64 0-.336.028-.666.13-.985.303-.955 1.194-1.627 2.2-1.65.546-.013 1.096-.04 1.638.005.579.048 1.006-.12 1.377-.583.393-.491.867-.916 1.29-1.383C9.137 3.252 9.758 3 10.49 3h3.475zm-1.832 5.014C9.5 8 7.316 10.299 7.312 13.087c-.003 2.783 2.178 5.087 4.812 5.081 2.646-.006 4.79-2.292 4.782-5.1-.008-2.778-2.144-5.04-4.774-5.054zm.015 1.73c1.748.01 3.156 1.499 3.16 3.34.002 1.862-1.422 3.357-3.197 3.354-1.782-.004-3.182-1.489-3.176-3.367.007-1.868 1.427-3.339 3.213-3.328z"/>
</svg>
