<svg width="24" height="24" viewBox="0 0 24 24">
    <g fill-rule="evenodd">
        <path fill-opacity="0" d="M0 0H24V24H0z"/>
        <path d="M13.964 4c.733.001 1.348.236 1.848.726.502.491 1.034.959 1.537 1.45.207.202.432.29.74.282.561-.017 1.124-.01 1.687-.004 1.197.012 2.067.716 2.202 1.78.017.133.02.267.02.4L22 17.336c0 .312-.02.622-.117.923-.327 1.011-1.29 1.667-2.543 1.735l-.248.006H4.994c-.365 0-.728-.022-1.079-.117-1.098-.298-1.844-1.16-1.908-2.204l-.005-.155v-.156c0-2.856.002-5.713-.002-8.569 0-.299.028-.592.13-.876.303-.849 1.194-1.445 2.2-1.467.546-.011 1.096-.034 1.638.006.579.042 1.006-.107 1.377-.519.393-.436.867-.814 1.29-1.229C9.137 4.224 9.758 4 10.49 4h3.475zm-5.35 7.852c-.051-.033-.12-.03-.17.01l-.022.024-1.904 2.254-.015.027c-.008.03 0 .062.025.083.014.012.031.018.05.018l1.409.001c.468 1.834 2.406 3.19 4.23 3.19 1.967 0 3.795-1.012 4.266-2.734.092-.336-.106-.682-.441-.774-.336-.092-.682.106-.774.442-.298 1.088-1.595 1.806-3.051 1.806-1.167 0-2.445-.835-2.902-1.93h1.126l.031-.007c.029-.012.049-.04.049-.074 0-.018-.006-.036-.018-.05l-.017-.021-1.837-2.235zM12.259 7C10.292 7 8.463 8.01 7.992 9.734c-.091.335.106.682.442.774.335.091.682-.106.774-.442.297-1.089 1.594-1.806 3.05-1.806 1.168 0 2.446.834 2.903 1.93h-1.126l-.032.007c-.028.012-.048.04-.048.073 0 .019.006.037.018.051l.016.02 1.838 2.235.035.03c.051.033.12.03.169-.01.007-.006.013-.012.022-.023l1.904-2.255.015-.027c.009-.029 0-.062-.024-.082-.014-.012-.032-.019-.05-.019h-1.41C16.02 8.354 14.083 7 12.259 7z"/>
    </g>
</svg>
