<svg width="48" height="49" viewBox="0 0 48 49" fill="none" xmlns="http://www.w3.org/2000/svg">
<path d="M7.2 48.5C5.2 48.5 3.5 47.8 2.1 46.4C0.7 45 0 43.3 0 41.3V7.7C0 5.7 0.7 4 2.1 2.6C3.5 1.2 5.2 0.5 7.2 0.5H40.8C42.8 0.5 44.5 1.2 45.9 2.6C47.3 4 48 5.7 48 7.7V41.3C48 43.3 47.3 45 45.9 46.4C44.5 47.8 42.8 48.5 40.8 48.5H7.2ZM7.2 44.9H40.8C41.84 44.9 42.7 44.55 43.38 43.85C44.06 43.15 44.4 42.3 44.4 41.3V7.7C44.4 6.66 44.06 5.8 43.38 5.12C42.7 4.44 41.84 4.1 40.8 4.1H7.2C6.2 4.1 5.35 4.44 4.65 5.12C3.95 5.8 3.6 6.66 3.6 7.7V41.3C3.6 42.3 3.95 43.15 4.65 43.85C5.35 44.55 6.2 44.9 7.2 44.9ZM11.04 38.3L19.2 30.14L23.58 34.46L28.8 27.86L37.14 38.3H11.04ZM14.4 19.1C13.24 19.1 12.25 18.69 11.43 17.87C10.61 17.05 10.2 16.06 10.2 14.9C10.2 13.74 10.61 12.75 11.43 11.93C12.25 11.11 13.24 10.7 14.4 10.7C15.56 10.7 16.55 11.11 17.37 11.93C18.19 12.75 18.6 13.74 18.6 14.9C18.6 16.06 18.19 17.05 17.37 17.87C16.55 18.69 15.56 19.1 14.4 19.1Z" fill="#AAAAAF"/>
</svg>
