<svg width="24" height="24" viewBox="0 0 24 24">
  
        <path  fill-opacity="0" d="M0 0H24V24H0z"/>
        <path  d="M17.653 4c.651 0 1.298.057 1.895.334 1.512.702 2.377 1.9 2.411 3.56.058 2.734.05 5.47.005 8.206-.036 2.157-1.69 3.751-3.92 3.89-.129.009-.258.008-.388.008-3.79 0-7.579-.002-11.369.002-1.152.001-2.192-.296-3.04-1.112-.78-.752-1.228-1.666-1.232-2.757-.012-2.754-.028-5.509.004-8.262.023-2.003 1.55-3.611 3.546-3.823.294-.031.59-.043.885-.044L9.223 4h8.43zm.205 1.802c-3.937.033-7.875.013-11.813.014-.22 0-.439.012-.656.078-.99.302-1.59 1.111-1.593 2.21-.007 2.57.024 5.14-.014 7.709-.02 1.296.96 2.42 2.407 2.38 1.921-.054 3.845-.014 5.767-.014 1.96 0 3.92-.035 5.879.014 1.154.028 2.374-.836 2.334-2.33-.015-.553-.002-1.108-.002-1.663 0-2.033-.013-4.067.003-6.1.012-1.499-1.224-2.308-2.312-2.298zm-7.378 4.492c.354.46.677.948 1.012 1.425.576.819.71.823 1.307.034.32-.422.532-.437.838-.007.824 1.154 1.633 2.32 2.449 3.48.129.183.224.376.107.603-.112.22-.319.165-.497.165l-8.808-.112c-.092 0-.186.005-.276-.01-.328-.05-.485-.31-.373-.643.048-.146.142-.277.229-.405.969-1.435 1.94-2.868 2.911-4.301.055-.08.107-.164.168-.238.312-.376.63-.387.933.009zm6.005-2.287c.827.001 1.526.708 1.508 1.524-.018.797-.708 1.473-1.507 1.476-.827.003-1.504-.691-1.493-1.53.012-.814.679-1.472 1.492-1.47z"/>
   
</svg>

