<svg width="18" height="18" viewBox="0 0 18 18" fill="none" xmlns="http://www.w3.org/2000/svg">
<path  fill-rule="evenodd" clip-rule="evenodd" d="M14.1667 7.08333C14.1667 3.17192 10.996 0 7.08333 0C3.17071 0 0 3.17192 0 7.08333C0 10.9948 3.17071 14.1667 7.08333 14.1667C10.996 14.1667 14.1667 10.9948 14.1667 7.08333ZM1.66667 7.08333C1.66667 4.09119 4.09239 1.66667 7.08333 1.66667C10.0743 1.66667 12.5 4.09119 12.5 7.08333C12.5 10.0755 10.0743 12.5 7.08333 12.5C4.09239 12.5 1.66667 10.0755 1.66667 7.08333ZM17.3046 16.1781L16.1181 17.3486L12.3232 13.5019L13.5097 12.3314L17.3046 16.1781Z"/>
</svg>
